<?xml version="1.0" encoding="utf-8"?>
<!-- Generator: Adobe Illustrator 24.0.1, SVG Export Plug-In . SVG Version: 6.00 Build 0)  -->
<svg version="1.1" id="Layer_1" xmlns="http://www.w3.org/2000/svg" xmlns:xlink="http://www.w3.org/1999/xlink" x="0px" y="0px"
	 viewBox="0 0 30 30" style="enable-background:new 0 0 30 30;" xml:space="preserve">
<style type="text/css">
	.backgroundSvg{fill:#3D8693;}
	.arrowSvg{fill:#FFFFFF;}
	.st2{fill:none;}
</style>
<circle class="backgroundSvg" cx="15" cy="15" r="14.6"/>
<path class="arrowSvg" d="M20.9,14.9v0.1c0,0.6-0.6,1.2-1.2,1.2h-7.4l2.2,2.8c0.1,0.2,0.2,0.4,0.2,0.7c0,0.3-0.1,0.6-0.3,0.8
	c-0.4,0.4-1,0.3-1.3-0.1l-3.6-4.7c-0.1-0.2-0.2-0.4-0.2-0.6c0-0.2,0.1-0.4,0.2-0.6L13,9.6c0.3-0.4,0.9-0.5,1.3-0.1
	c0.2,0.2,0.3,0.5,0.3,0.8c0,0.2-0.1,0.5-0.2,0.7l-2.2,2.8h7.4C20.3,13.8,20.9,14.3,20.9,14.9z"/>
<line class="st2" x1="-13.2" y1="5.3" x2="-14.8" y2="5.3"/>
</svg>
