<svg xmlns="http://www.w3.org/2000/svg" width="2877" height="2877" viewBox="0 0 2877 2877">
  <g id="Group_4" data-name="Group 4" transform="translate(3900 2769)">
    <circle id="Ellipse_7" data-name="Ellipse 7" cx="1438.5" cy="1438.5" r="1438.5" transform="translate(-3900 -2769)" fill="#fff"/>
    <path id="Icon_awesome-linkedin-in" data-name="Icon awesome-linkedin-in" d="M301.847,1348.471H22.274v-900.3H301.847ZM161.91,325.356C72.512,325.356,0,251.309,0,161.911a161.91,161.91,0,1,1,323.821,0C323.821,251.309,251.279,325.356,161.91,325.356ZM1348.2,1348.471H1069.228V910.208c0-104.449-2.107-238.4-145.355-238.4-145.355,0-167.629,113.479-167.629,230.87v445.788H476.972v-900.3H745.106v122.81h3.913c37.325-70.736,128.5-145.385,264.523-145.385,282.944,0,334.958,186.322,334.958,428.329v494.55Z" transform="translate(-3122.5 -2123.501)" fill="#424288"/>
  </g>
</svg>
