<svg xmlns="http://www.w3.org/2000/svg" width="500" height="500" viewBox="0 0 500 500">
  <g id="Layer_2" data-name="Layer 2">
    <g id="Layer_1-2" data-name="Layer 1">
      <g>
        <circle cx="250" cy="250" r="250" fill="#fff"/>
        <path id="LOGO" d="M403.9941,304.81a.9939.9939,0,0,0,.1152-.1844,100.9733,100.9733,0,0,0,13.2558-34.3037,111.9866,111.9866,0,0,0-11.8495-73.38c-9.51-17.3132-21.44-29.9582-35.249-38.9836a104.6194,104.6194,0,0,0-13.9128-7.6423c-.0116,0-.0231-.0115-.0346-.0115-13.4749-6.5127-28.5519-10.3511-43.0757-12.9908a193.4882,193.4882,0,0,0-21.0594-1.556h-.3113c-.3228-.0116-.6455-.0116-.9683-.0116-.3,0-.5993-.0115-.91-.0115-.4727,0-.9453.0115-1.4178.0115A140.392,140.392,0,0,0,265.43,137.74q-4.2187.6225-8.6335,1.4409-6.3975,1.1929-13.1982,2.778a.04.04,0,0,0-.0231-.0116,121.9433,121.9433,0,0,0-33.8542-5.9017h-.0461c-8.4723-.6686-16.1491-.2766-27.941,1.51a132.0147,132.0147,0,0,0-45.45,15.3767,202.44,202.44,0,0,0-17.5553,11.5845c-11.4807,8.1725-20.1258,19.0077-27.4223,30.8573a101.2342,101.2342,0,0,0-13.2673,34.3037,112.1463,112.1463,0,0,0,13.809,76.8262c1.9251,3.2851,2.4668,5.798,1.3257,9.5673-3.3313,10.9965-5.7634,22.2582-8.9794,33.2894-.8069,2.801.461,2.0979,1.971,1.7059,11.1119-2.8471,22.0854-6.2475,33.1742-9.1638a10.3525,10.3525,0,0,1,8.576,1.487c15.9185,10.5009,35.5486,15.907,54.2566,19.2959a193.2914,193.2914,0,0,0,21.0479,1.556h.3113c.3228.0116.6455.0116.9683.0116.3111,0,.6108.0115.9221.0115.461,0,.9337-.0115,1.4178-.0115a140.5048,140.5048,0,0,0,23.1458-1.9941q4.2189-.6225,8.6336-1.4409c4.2534-.7953,8.6682-1.7175,13.1982-2.778a.04.04,0,0,0,.0231.0116,121.936,121.936,0,0,0,33.8426,5.9017h.0461c8.4837.6686,16.1606.2766,27.941-1.51a131.992,131.992,0,0,0,45.4617-15.3767q1.7463-.9857,3.458-2.04a10.2469,10.2469,0,0,1,7.0084-.0923c10.8582,3.7347,21.5436,7.93,32.4249,11.5845,1.4754.4842,2.6857,1.291,2.0863-1.5677-2.3976-11.2386-4-22.65-6.5127-33.8542-.8645-3.85-.1383-6.3166,2.0172-9.44Q401.9826,308.2334,403.9941,304.81Zm-9.4059-43.4214c-4.703,23.3187-14.5238,40.09-33.7044,55.5937-14.2587,11.5269-30.6037,18.0049-48.1475,21.6474a90.9265,90.9265,0,0,1-26.0736,1.8558c-19.365-1.6714-37.7618-6.9391-54.1991-17.1864-10.593-6.6165-20.4024-14.6967-27.5029-25.3936-5.7058-8.5875-10.5931-17.6015-12.9215-27.6874-1.5216-6.5472-3.4-13.3135-3.0893-19.8952.7032-15.1463,3.7463-29.7738,12.23-43.0066a116.9343,116.9343,0,0,1,17.3248-21.6242c.6339-.611,1.3256-1.1758,2.0056-1.7406a.3687.3687,0,0,0-.1613-.6455c-3.8615-.7146-21.6127-2.7088-30.304-1.6714-.5417.0576-1.0028,1.1181-1.4293,1.7521-9.913,14.9042-18.1663,29.7276-21.7742,47.3175-1.291,6.34-.7607,12.5066-1.6137,19.7108.15,22.8577,7.5846,44.1132,21.97,63.0863a86.1761,86.1761,0,0,0,11.2847,11.78q4.1151,3.8211,8.2071,7.2158c.0115.0115.0231.0115.0346.023,4.4494,3.6771,10.2819,8.0226,10.6392,8.4261-.0345-.0115-.1037-.0577-.2074-.1153-1.13.1614-2.2478.3-3.3658.4265h-.0116a93.3678,93.3678,0,0,1-10.1666.5879h-.3574c-2.9393-.0692-5.8671-.2651-8.7834-.5648a.1449.1449,0,0,1-.0691-.0116.4736.4736,0,0,1-.1268-.0115,153.9158,153.9158,0,0,1-20.7253-3.8038c-19.8375-4.8989-36.4246-14.9964-50.5219-29.451a83.0183,83.0183,0,0,1-21.3016-38.7186,70.1144,70.1144,0,0,1-.899-30.6728c4.6914-23.3187,14.5237-40.09,33.7043-55.5937,14.2587-11.5269,30.6037-18.0049,48.136-21.6474a91.0359,91.0359,0,0,1,26.0852-1.8558c19.3534,1.6714,37.7617,6.9391,54.1989,17.1864,10.5932,6.6165,20.4025,14.6967,27.5031,25.3936,5.6941,8.5875,10.593,17.6015,12.9215,27.6874,1.51,6.5472,3.3888,13.3135,3.0891,19.8952-.7031,15.1463-3.7462,29.7738-12.23,43.0066a116.942,116.942,0,0,1-17.3247,21.6242c-.6341.611-1.3257,1.1758-2.0058,1.7406a.3688.3688,0,0,0,.1614.6455c3.8615.7146,21.6128,2.7088,30.304,1.6714.53-.0576,1.0029-1.1181,1.4294-1.7521,9.9014-14.9042,18.1661-29.7276,21.7626-47.3175,1.3024-6.34.7722-12.5066,1.6252-19.7108-.15-22.8577-7.5846-44.1132-21.97-63.0863a85.5826,85.5826,0,0,0-11.2962-11.78q-4.0978-3.8211-8.2071-7.2158l-.0231-.023c-5.0948-4.2073-12.0109-9.3021-10.4317-8.3108,1.13-.1614,2.2477-.3,3.3658-.4265a93.7425,93.7425,0,0,1,10.1782-.5879h.3573c2.9278.0692,5.8556.2651,8.7834.5648a.1455.1455,0,0,1,.0692.0116.4739.4739,0,0,1,.1268.0115,154.2486,154.2486,0,0,1,20.7252,3.8038c19.8376,4.8989,36.4247,14.9964,50.5219,29.451a83.0183,83.0183,0,0,1,21.3016,38.7186A70.1174,70.1174,0,0,1,394.5882,261.3885Z" fill="#424288"/>
      </g>
    </g>
  </g>
</svg>
