<svg xmlns="http://www.w3.org/2000/svg" width="1147.6995" height="198.26" viewBox="0 0 1147.6995 198.26">
  <g id="Layer_2" data-name="Layer 2">
    <g id="Layer_1-2" data-name="Layer 1">
      <g id="Functie">
        <g>
          <path d="M433.4674,96.1683a33.7328,33.7328,0,1,1,33.73-33.7137A33.8167,33.8167,0,0,1,433.4674,96.1683Zm.01-47.2313a13.4823,13.4823,0,1,0,13.4909,13.5061A13.5307,13.5307,0,0,0,433.4775,48.937Z" fill="#424288"/>
          <path d="M366.0654,78.6049V94.4715H345.6167V30.2743c.27-.0128.5431-.0368.8161-.0368,7.0385-.002,14.077-.0137,21.1154.0024a34.8184,34.8184,0,0,1,16.0038,3.431,22.1952,22.1952,0,0,1,12.5949,17.7323,23.9863,23.9863,0,0,1-3.0886,16.2244,19.2575,19.2575,0,0,1-5.3,5.7071c4.0043,7.051,7.982,14.055,12.0315,21.1853h-.9026c-7.4625,0-14.925-.01-22.3874.0171a1.2524,1.2524,0,0,1-1.2435-.7448q-4.2412-7.2351-8.5284-14.4434c-.1562-.264-.3235-.5215-.4856-.7819Zm.0721-31.0093V61.8282a12.5508,12.5508,0,0,0,6.32-1.0861,6.2484,6.2484,0,0,0,3.4352-6.054,6.2251,6.2251,0,0,0-3.4238-5.9745A12.9255,12.9255,0,0,0,366.1375,47.5956Z" fill="#424288"/>
          <path d="M654.6211,73.3375,666.653,94.52h-.9536c-7.4342,0-14.8684-.008-22.3026.0146a1.2531,1.2531,0,0,1-1.2632-.7107c-2.8381-4.85-5.7083-9.6813-8.5711-14.5169-.1507-.2544-.3193-.4982-.6058-.9429V94.4589H612.461V30.2358h.8845c7.01,0,14.02-.0126,21.03.0042a34.731,34.731,0,0,1,16.1565,3.4959c7.7769,4.0143,11.8932,10.472,12.6395,19.1479a24.004,24.004,0,0,1-2.4392,13.3151A19.7716,19.7716,0,0,1,654.6211,73.3375Zm-21.6364-11.41a38.2685,38.2685,0,0,0,3.8944-.36c5.6221-1.09,6.4906-5.5235,5.5837-9.0008-.9042-3.4672-5.7009-5.8964-9.4781-4.8477Z" fill="#424288"/>
          <path d="M525.0605,35.5424l-11.6177,16.51c-7.582-5.4014-16.5888-3.292-20.1473,2.6846-3.3783,5.6738-2.8447,14.3215,3.6793,18.8258a13.56,13.56,0,0,0,18.2367-2.7746h-5.58V57.2759H534.268c.0137.2908.04.5927.04.8947.0024,6.5585.01,13.1171-.0154,19.6755a2.9133,2.9133,0,0,1-.3963,1.421A33.471,33.471,0,0,1,511.58,95.4331c-18.1762,3.9743-36.4642-7.9395-39.8758-26.2157-2.3516-12.5978,1.061-23.5956,10.5841-32.3786a30.2854,30.2854,0,0,1,18.9928-8.0071A35.55,35.55,0,0,1,521.8409,33.26c.8057.4623,1.5536,1.027,2.3182,1.5587C524.4578,35.0266,524.7287,35.274,525.0605,35.5424Z" fill="#424288"/>
          <path d="M568.1812,94.4614V30.2789h37.7393V47.115H588.7044v7.1137H605.63v15.98H588.7253v7.4254H606.61v16.827Z" fill="#424288"/>
          <path d="M539.6964,30.2776h21.64V94.46h-21.64Z" fill="#424288"/>
        </g>
        <g>
          <path d="M699.2274,61.4712c.217-1.7335.329-3.4878.6682-5.197,2.0855-10.5081,7.8237-18.46,17.2309-23.5132a33.7106,33.7106,0,1,1-17.1521,36.4427c-.3092-1.4882-.4021-3.0212-.5958-4.5334q-.0746-.5814-.1512-1.1626ZM733.01,48.966a13.487,13.487,0,1,0,13.5055,13.4967A13.5338,13.5338,0,0,0,733.01,48.966Z" fill="#424288"/>
          <path d="M874.5093,94.5147V30.298c.2956-.014.5682-.0379.8408-.038,7.067-.0019,14.1341-.017,21.201.0037a34.6934,34.6934,0,0,1,15.92,3.4289A22.2041,22.2041,0,0,1,925.07,51.4285a24.0035,24.0035,0,0,1-3.0858,16.2307,19.31,19.31,0,0,1-5.3025,5.7139l12.0315,21.1916h-.8981c-7.4627,0-14.9255-.0093-22.3882.0169a1.2529,1.2529,0,0,1-1.2462-.7406q-4.22-7.2012-8.4875-14.3747c-.171-.289-.3461-.5756-.6605-1.0978V94.5147Zm20.5284-32.6593a13.6747,13.6747,0,0,0,5.9607-.8844c5.0148-2.1207,4.6464-9.1884,1.5391-11.4992-2.25-1.6729-4.81-1.8728-7.5-1.8509Z" fill="#424288"/>
          <path d="M795.3061,58.16c1.2146-3.092,2.3667-6.0245,3.5186-8.957q3.5764-9.105,7.15-18.2113c.1712-.4368.3175-.7535.9273-.7511,7.097.0274,14.194.0176,21.2911.0192.1359,0,.2718.0194.4789.0351-.1333.383-.2406.7268-.3711,1.0617Q816.1718,62.49,804.0523,93.6263a1.2343,1.2343,0,0,1-1.3752.9632c-4.9477-.0492-9.8961-.0378-14.8441-.0086a1.0245,1.0245,0,0,1-1.1539-.7788q-12.1962-31.3794-24.43-62.7441c-.09-.23-.155-.4688-.2508-.7622.3112-.0146.5562-.0359.8012-.036,6.9274-.0018,13.8548.01,20.782-.0193a1.0417,1.0417,0,0,1,1.1374.8183q5.08,13.11,10.1941,26.2056C795.0113,57.5179,795.1309,57.7633,795.3061,58.16Z" fill="#424288"/>
          <path d="M956.1421,58.16c1.1009-2.8016,2.14-5.4443,3.178-8.0873q3.7468-9.5386,7.49-19.0786c.1708-.4357.315-.7551.9262-.7528,7.0969.0276,14.194.0177,21.291.0193.1362,0,.2725.0191.48.0346-.1325.3819-.2394.7259-.37,1.0606Q977.0088,62.4882,964.889,93.6246a1.2342,1.2342,0,0,1-1.3738.9652c-4.9477-.05-9.8961-.038-14.8441-.0091a1.0244,1.0244,0,0,1-1.1551-.7769q-12.1959-31.38-24.43-62.7441c-.09-.23-.1555-.4688-.252-.7632.3106-.0148.5552-.0366.8-.0367,6.9274-.0018,13.8548.01,20.7821-.0192a1.0418,1.0418,0,0,1,1.1388.8164q5.0794,13.11,10.194,26.2059C955.8467,57.5156,955.9659,57.76,956.1421,58.16Z" fill="#424288"/>
          <path d="M868.6859,77.6811V94.4958h-38.427V30.3112H868v16.81H850.7716v7.115h16.9071V70.2524H850.7645v7.4287Z" fill="#424288"/>
          <path d="M1100.4489,77.6742V94.5065h-38.4474V30.3011h37.7319V47.144h-17.2173V54.26h16.9267V70.2459H1082.537v7.4283Z" fill="#424288"/>
          <path d="M1114.7223,47.1508h-11.828v-16.83H1147.7V47.1156h-11.7826V94.5145h-21.1946Z" fill="#424288"/>
          <path d="M1030.0827,94.538H991.0985V30.3164h21.29V77.6786h17.6941Z" fill="#424288"/>
          <path d="M1033.5052,30.3013h21.6437V94.5056h-21.6437Z" fill="#424288"/>
        </g>
      </g>
      <g id="Naam">
        <g>
          <path d="M428.13,166.4588q.4583-1.977.9164-3.954c.0558-.241.11-.4823.1832-.8027.3731.16.7152.309,1.0593.4532a27.2019,27.2019,0,0,0,11.54,2.4331,8.9876,8.9876,0,0,0,6.36-2.508c2.332-2.3479,3.1639-7.7716-.9493-10.5339a32.2518,32.2518,0,0,0-5.9768-2.9067,38.8747,38.8747,0,0,1-7.8292-3.8112,10.3815,10.3815,0,0,1-4.6165-6.345,11.3314,11.3314,0,0,1,5.819-12.5162,17.974,17.974,0,0,1,9.0066-2.15,30.3993,30.3993,0,0,1,10.895,2.0295c.1233.0474.2448.1.4355.1776l-1.1742,4.778c-1.1336-.3777-2.201-.7884-3.2988-1.0884a23.04,23.04,0,0,0-8.81-.8561c-2.6735.3143-5.0168,1.3114-6.4376,3.7707a5.89,5.89,0,0,0,1.6112,7.88,25.94,25.94,0,0,0,5.5525,2.7223,47.12,47.12,0,0,1,7.8156,3.5846c2.598,1.63,4.6437,3.7281,5.3724,6.81,1.3661,5.7782-.8824,12.23-7.948,14.7967a20.6973,20.6973,0,0,1-8.8331,1.029,30.2678,30.2678,0,0,1-10.6931-2.8771Z" fill="#0c0c0c"/>
          <path d="M484.7662,169.55c-6.1646.0355-11.6818-1.8629-16.0944-6.4763a22.0125,22.0125,0,0,1-5.7666-11.7977,24.91,24.91,0,0,1,1.0961-13.1912c2.96-7.8475,8.6008-12.55,16.88-13.9476a22.421,22.421,0,0,1,13.9431,1.928A20.01,20.01,0,0,1,505.6054,139.27a25.1914,25.1914,0,0,1-2.226,19.5774,20.208,20.208,0,0,1-15.0065,10.3706c-.5284.09-1.061.1628-1.5946.2109C486.1488,169.4854,485.516,169.5066,484.7662,169.55Zm-16.3257-23.7039a23.47,23.47,0,0,0,.7684,6.4318c2.0571,7.4275,7.9156,12.06,15.33,12.1255a14.8848,14.8848,0,0,0,14.5477-9.6263,21.4489,21.4489,0,0,0,.3363-15.5,14.7578,14.7578,0,0,0-7.75-8.754,16.7388,16.7388,0,0,0-9.4077-1.4472,14.5233,14.5233,0,0,0-10.0958,5.5348A18.1448,18.1448,0,0,0,468.4405,145.8463Z" fill="#0c0c0c"/>
          <path d="M609.719,168.609c-1.68.1293-3.3154.2663-4.953.3775-1.0819.0734-1.0809.056-1.4618-.94-1.183-3.0913-2.3748-6.1793-3.5427-9.2763a.6184.6184,0,0,0-.69-.4889q-9.9765.0211-19.9531-.002a.6584.6584,0,0,0-.7221.5284c-1.2329,3.2565-2.4889,6.5043-3.7177,9.7624a.5922.5922,0,0,1-.7415.4661c-1.7339-.1683-3.473-.2831-5.2907-.4238.0817-.233.1418-.4253.2156-.6122q8.4873-21.4876,16.9666-42.9784a.7344.7344,0,0,1,.8286-.5571c1.7629.0305,3.5266.021,5.29.005a.59.59,0,0,1,.6749.4291q8.4594,21.6213,16.9415,43.2338C609.6181,168.2719,609.6568,168.417,609.719,168.609Zm-20.5336-38.0061c-3.002,7.7078-5.9415,15.2551-8.8969,22.8435h17.6626C595.0316,145.8383,592.136,138.2921,589.1854,130.6029Z" fill="#0c0c0c"/>
          <path d="M612.1146,168.6107c.1-.2663.1747-.476.2565-.683q8.4758-21.4612,16.9451-42.9251a.7038.7038,0,0,1,.7837-.5375c1.7821.03,3.565.0231,5.3474.0038a.5894.5894,0,0,1,.659.4514q8.45,21.5943,16.92,43.18c.061.1554.106.3171.169.5076-1.9385.1505-3.8274.3077-5.7188.4234-.1489.0091-.3923-.2408-.4625-.4207-1.119-2.87-2.2157-5.7484-3.3205-8.6238-.212-.5519-.2916-1.3076-.6966-1.59s-1.1423-.1034-1.7339-.1037c-6.1719-.0033-12.3438.0072-18.5156-.018a.8282.8282,0,0,0-.9268.6579c-1.2092,3.2245-2.4547,6.4354-3.6716,9.657-.1363.3607-.281.49-.6981.45C615.7015,168.8709,613.9468,168.7534,612.1146,168.6107Zm11.6492-15.1568h17.6686c-2.9191-7.6068-5.816-15.1557-8.7687-22.85C629.6661,138.3,626.7267,145.8465,623.7638,153.4539Z" fill="#0c0c0c"/>
          <path d="M547.5127,126.0249l-1.2471,4.9061c-1.1755-.3819-2.2817-.8135-3.4244-1.0993a23.0668,23.0668,0,0,0-11.4833-.341,14.9292,14.9292,0,0,0-10.8514,9.7773c-2.2571,6.2051-1.9308,12.3046,1.7149,17.9522a15.4745,15.4745,0,0,0,11.776,7.0457,21.5,21.5,0,0,0,12.3678-2.2465c.1681-.0842.3439-.1533.55-.2442.3174,1.5845.6169,3.1242.94,4.659.0754.3581-.1153.4635-.3771.5877a28.2648,28.2648,0,0,1-17.6264,1.85c-8.645-2.2212-14-7.7528-15.9995-16.4068a24.2914,24.2914,0,0,1,1.66-16.1084,20.6945,20.6945,0,0,1,15.15-11.9618,28.3786,28.3786,0,0,1,16.42,1.4439C547.2057,125.8862,547.326,125.9438,547.5127,126.0249Z" fill="#0c0c0c"/>
          <path d="M660.2636,168.8412v-44.33h5.8121V163.799H686.19c-.1786,1.7145-.35,3.3631-.5254,5.0422Z" fill="#0c0c0c"/>
          <path d="M555.7266,124.493H561.5V168.84h-5.7736Z" fill="#0c0c0c"/>
        </g>
        <g>
          <path d="M708.6617,145.4112c.195-1.34.3368-2.6909.5936-4.0192a21.084,21.084,0,0,1,18.5679-17.2561c6.63-.761,12.67.6789,17.7276,5.2389a20.7535,20.7535,0,0,1,6.5768,12.3488,25.1608,25.1608,0,0,1-2.7207,16.9688,20.1462,20.1462,0,0,1-15.8977,10.5154,21.9162,21.9162,0,0,1-14.06-2.598c-5.6087-3.2526-8.8288-8.2389-10.1805-14.495-.2861-1.3244-.4089-2.684-.6069-4.0274Zm37.9751.588c-.045-.5594-.0769-1.6274-.225-2.6791a16.5518,16.5518,0,0,0-5.0055-10.1879,15.4474,15.4474,0,0,0-11.81-4.0663,14.4767,14.4767,0,0,0-12.6236,7.6241,20.1261,20.1261,0,0,0-2.06,13.4627c1.2171,7.56,6.4395,13.3268,14.0532,14.0525,6.0911.5807,11.1272-1.4276,14.6213-6.6242C745.8282,154.2478,746.5982,150.4671,746.6368,145.9992Z" fill="#0c0c0c"/>
          <path d="M1022.2008,134.1548q-2.1052,17.3745-4.1917,34.5931h-5.861c1.8875-14.794,3.7564-29.4425,5.65-44.2875,1.8291,0,3.633-.02,5.4352.0264.2086.0053.5016.3368.5979.5795,1.76,4.4369,3.4945,8.8838,5.237,13.3275q3.9274,10.0158,7.8586,20.03c.0627.16.1322.3173.2474.5926.1442-.3264.2558-.5566.3493-.7939q6.4971-16.4994,12.976-33.0061a1.0172,1.0172,0,0,1,1.1793-.7677c1.63.0563,3.2627.0187,4.9516.0187,1.8473,14.8219,3.6735,29.4737,5.5184,44.2761H1056.29l-4.0242-34.6406c-.088.2016-.2067.4516-.3076.7085q-6.1569,15.6764-12.297,31.3593c-.2129.5452-.4482.7809-1.0571.7482-1.0376-.0557-2.082-.05-3.12-.0015-.55.0253-.7636-.1972-.9485-.6807q-5.99-15.6612-12.012-31.31C1022.4224,134.6634,1022.3063,134.4062,1022.2008,134.1548Z" fill="#0c0c0c"/>
          <path d="M761.6479,168.7V124.7385c1.4412-.095,2.8929-.1387,4.33-.3053a1.6641,1.6641,0,0,1,1.7391.8745q11.75,16.6694,23.5447,33.3067c.1542.2179.32.4279.61.8152V124.6325h5.6411v.8337q0,21.1854.0132,42.3709c.0008.6534-.1424.9161-.8469.9092-1.2621-.0123-2.528.0416-3.7866.1407a1.1883,1.1883,0,0,1-1.2005-.6175q-11.91-16.92-23.8466-33.8208c-.1525-.2161-.3138-.4259-.5748-.7792V168.7Z" fill="#0c0c0c"/>
          <path d="M936.1483,168.7336h-5.5855V124.7225c1.7148-.0992,3.4355-.2184,5.1583-.2725.2066-.0065.4721.3067.63.5288q6.6436,9.3609,13.2679,18.7352,5.2782,7.46,10.5557,14.92c.15.2126.3123.417.5878.7833v-34.769h5.6147c.0109.2447.0326.5063.0327.7679q.0024,21.2226.0174,42.4452c.0011.6962-.2139.8832-.8742.8827-1.2626-.0011-2.5273.0518-3.787.1408a1.1383,1.1383,0,0,1-1.1467-.5753q-10.0007-14.2206-20.0319-28.42-1.9485-2.7622-3.8983-5.5238c-.1353-.1913-.2887-.37-.5406-.69Z" fill="#0c0c0c"/>
          <path d="M1107.9363,124.7209c1.695-.0992,3.35-.2213,5.0063-.2668a1.1914,1.1914,0,0,1,.7751.5258q6.3081,8.87,12.5839,17.7629,5.6214,7.9452,11.2441,15.8895c.1513.2137.314.4192.5871.7825V124.6494h5.6157c.0112.2424.0337.5035.0338.7646q.0025,21.2226.0172,42.4452c.001.6918-.2068.8866-.8715.8854-1.2625-.0023-2.5272.052-3.787.14a1.1386,1.1386,0,0,1-1.1479-.5728q-9.7659-13.8861-19.5628-27.7507-2.1841-3.0961-4.3671-6.1931c-.1355-.1918-.289-.3709-.54-.691v35.0308h-5.5868Z" fill="#0c0c0c"/>
          <path d="M809.2407,124.7348c5.618-.0457,11.1707-.3105,16.7019-.0735a20.604,20.604,0,0,1,14.2787,6.09,19.0224,19.0224,0,0,1,5.1281,10.3482,26.08,26.08,0,0,1-1.2766,14.5275c-2.7182,6.7157-7.7686,10.7958-14.7343,12.4891a27.4964,27.4964,0,0,1-6.0916.77c-4.4808.0576-8.9643-.099-13.4467-.1711-.17-.0027-.339-.035-.56-.0591Zm5.77,4.9242V162.99c0,.1486-.0535.331.0132.4383.1161.1869.3087.4688.4657.4665a98.92,98.92,0,0,0,10.4581-.2712,14.756,14.756,0,0,0,12.3093-8.9734,21.4036,21.4036,0,0,0,1.4076-11.8567,14.5177,14.5177,0,0,0-12.5188-12.9991c-3.6231-.5918-7.2618-.3048-10.8972-.2193C815.8589,129.5837,815.47,129.6267,815.0105,129.659Z" fill="#0c0c0c"/>
          <path d="M891.0159,124.8609c1.5164-.0645,2.9989-.1659,4.4824-.1832,3.912-.0456,7.8264-.1419,11.7357-.0464a15.1419,15.1419,0,0,1,6.8781,1.9283,11.1175,11.1175,0,0,1,5.7819,7.7064,16.2332,16.2332,0,0,1-.5893,9.3582,11.8883,11.8883,0,0,1-7.5553,7.167c-.2524.09-.5015.19-.8272.3136,4.1615,5.8149,8.2873,11.58,12.4825,17.4422-2.0616.1611-3.9776.3283-5.897.4349-.2027.0112-.4759-.2982-.6309-.5189q-5.4453-7.7514-10.8569-15.5262a1.3931,1.3931,0,0,0-1.3243-.6933c-2.5992.0372-5.1992.0157-7.8972.0157v16.4579h-5.7825Zm5.8015,22.3615c2.1328,0,4.186.04,6.2368-.013a31.7681,31.7681,0,0,0,4.6512-.3322,7.4136,7.4136,0,0,0,6.2027-4.9895,11.9171,11.9171,0,0,0,.4291-5.5,7.5872,7.5872,0,0,0-1.4488-3.7617,7.7106,7.7106,0,0,0-6.01-2.942c-3.2814-.159-6.5762-.0414-9.8653-.0369-.0618,0-.1236.064-.1956.1038Z" fill="#0c0c0c"/>
          <path d="M855.0338,124.6334h25.9278v4.9853H860.8528v14.3372H878.25v4.7646c-.2681.0129-.5522.0384-.8363.0385-5.252.0024-10.5041.0136-15.756-.0127-.6765-.0034-.8754.1737-.87.8649.0316,4.4343.0156,8.8689.0175,13.3034,0,.2415.02.483.0345.7986H882.196c-.1768,1.7-.3447,3.3151-.5183,4.9841H855.0338Z" fill="#0c0c0c"/>
          <path d="M978.14,124.6325h25.926v4.9843h-20.107v14.3373h17.3952v4.7644c-.2654.0135-.549.04-.8326.04-5.252.0025-10.5041.0134-15.7559-.0124-.6723-.0033-.8785.1666-.8734.8622.0322,4.4342.0158,8.8688.0178,13.3033,0,.2421.02.4841.0344.7994h21.3568c-.1766,1.7-.3444,3.3151-.518,4.985H978.14Z" fill="#0c0c0c"/>
          <path d="M1077.77,163.7172h21.3441c-.1756,1.6943-.3447,3.3251-.5176,4.9938h-26.6553V124.6553H1097.87v4.9436h-20.0816v14.3845h17.3994v4.7756H1077.77Z" fill="#0c0c0c"/>
        </g>
      </g>
      <path id="Logo" d="M284.3208,146.68a.8636.8636,0,0,0,.1-.16,87.6012,87.6012,0,0,0,11.5-29.76,97.1534,97.1534,0,0,0-10.28-63.66c-8.25-15.02-18.6-25.99-30.58-33.82a90.7629,90.7629,0,0,0-12.07-6.63c-.01,0-.02-.01-.03-.01-11.69-5.65-24.77-8.98-37.37-11.27a167.8584,167.8584,0,0,0-18.27-1.35h-.27c-.28-.01-.56-.01-.84-.01-.26,0-.52-.01-.79-.01-.41,0-.82.01-1.23.01a121.79,121.79,0,0,0-20.08,1.73q-3.66.54-7.49,1.25-5.55,1.035-11.45,2.41a.0349.0349,0,0,0-.02-.01,105.7921,105.7921,0,0,0-29.37-5.12h-.04c-7.35-.58-14.01-.24-24.24,1.31a114.5261,114.5261,0,0,0-39.43,13.34,175.5977,175.5977,0,0,0-15.23,10.05c-9.96,7.09-17.46,16.49-23.79,26.77A87.8263,87.8263,0,0,0,1.5408,81.5a97.2918,97.2918,0,0,0,11.98,66.65c1.67,2.85,2.14,5.03,1.15,8.3-2.89,9.54-5,19.31-7.79,28.88-.7,2.43.4,1.82,1.71,1.48,9.64-2.47,19.16-5.42,28.78-7.95a8.9813,8.9813,0,0,1,7.44,1.29c13.81,9.11,30.84,13.8,47.07,16.74a167.6873,167.6873,0,0,0,18.26,1.35h.27c.28.01.56.01.84.01.27,0,.53.01.8.01.4,0,.81-.01,1.23-.01a121.8885,121.8885,0,0,0,20.08-1.73q3.66-.54,7.49-1.25c3.69-.69,7.52-1.49,11.45-2.41a.0349.0349,0,0,0,.02.01,105.7869,105.7869,0,0,0,29.36,5.12h.04c7.36.58,14.02.24,24.24-1.31a114.5069,114.5069,0,0,0,39.44-13.34q1.515-.855,3-1.77a8.8892,8.8892,0,0,1,6.08-.08c9.42,3.24,18.69,6.88,28.13,10.05,1.28.42,2.33,1.12,1.81-1.36-2.08-9.75-3.47-19.65-5.65-29.37-.75-3.34-.12-5.48,1.75-8.19Q282.5758,149.65,284.3208,146.68Zm-8.16-37.67c-4.08,20.23-12.6,34.78-29.24,48.23-12.37,10-26.55,15.62-41.77,18.78a78.8822,78.8822,0,0,1-22.62,1.61c-16.8-1.45-32.76-6.02-47.02-14.91-9.19-5.74-17.7-12.75-23.86-22.03-4.95-7.45-9.19-15.27-11.21-24.02-1.32-5.68-2.95-11.55-2.68-17.26.61-13.14,3.25-25.83,10.61-37.31a101.446,101.446,0,0,1,15.03-18.76c.55-.53,1.15-1.02,1.74-1.51a.32.32,0,0,0-.14-.56c-3.35-.62-18.75-2.35-26.29-1.45-.47.05-.87.97-1.24,1.52-8.6,12.93-15.76,25.79-18.89,41.05-1.12,5.5-.66,10.85-1.4,17.1.13,19.83,6.58,38.27,19.06,54.73a74.7578,74.7578,0,0,0,9.79,10.22q3.57,3.315,7.12,6.26c.01.01.02.01.03.02,3.86,3.19,8.92,6.96,9.23,7.31-.03-.01-.09-.05-.18-.1-.98.14-1.95.26-2.92.37h-.01a81.0042,81.0042,0,0,1-8.82.51h-.31c-2.55-.06-5.09-.23-7.62-.49a.1268.1268,0,0,1-.06-.01.41.41,0,0,1-.11-.01,133.52,133.52,0,0,1-17.98-3.3c-17.21-4.25-31.6-13.01-43.83-25.55a72.0219,72.0219,0,0,1-18.48-33.59,60.8289,60.8289,0,0,1-.78-26.61c4.07-20.23,12.6-34.78,29.24-48.23,12.37-10,26.55-15.62,41.76-18.78a78.977,78.977,0,0,1,22.63-1.61c16.79,1.45,32.76,6.02,47.02,14.91,9.19,5.74,17.7,12.75,23.86,22.03,4.94,7.45,9.19,15.27,11.21,24.02,1.31,5.68,2.94,11.55,2.68,17.26-.61,13.14-3.25,25.83-10.61,37.31a101.446,101.446,0,0,1-15.03,18.76c-.55.53-1.15,1.02-1.74,1.51a.32.32,0,0,0,.14.56c3.35.62,18.75,2.35,26.29,1.45.46-.05.87-.97,1.24-1.52,8.59-12.93,15.76-25.79,18.88-41.05,1.13-5.5.67-10.85,1.41-17.1-.13-19.83-6.58-38.27-19.06-54.73a74.2417,74.2417,0,0,0-9.8-10.22q-3.555-3.315-7.12-6.26l-.02-.02c-4.42-3.65-10.42-8.07-9.05-7.21.98-.14,1.95-.26,2.92-.37a81.3284,81.3284,0,0,1,8.83-.51h.31c2.54.06,5.08.23,7.62.49a.1268.1268,0,0,1,.06.01.41.41,0,0,1,.11.01,133.8076,133.8076,0,0,1,17.98,3.3c17.21,4.25,31.6,13.01,43.83,25.55a72.0219,72.0219,0,0,1,18.48,33.59A60.8289,60.8289,0,0,1,276.1608,109.01Z" fill="#424288"/>
    </g>
  </g>
</svg>
