<svg xmlns="http://www.w3.org/2000/svg" viewBox="0 0 916.4922 674.1627">
  <g id="Layer_2" data-name="Layer 2">
    <g id="Layer_1-2" data-name="Layer 1">
      <g>
        <g id="Functie">
          <g>
            <path d="M100.3817,571.7051a38.5445,38.5445,0,1,1,38.5413-38.5226A38.64,38.64,0,0,1,100.3817,571.7051Zm.0116-53.9684a15.4055,15.4055,0,1,0,15.4152,15.4326A15.4608,15.4608,0,0,0,100.3933,517.7367Z" fill="#fff"/>
            <path d="M23.3655,551.6365v18.13H0V496.4119c.3087-.0145.6206-.0419.9325-.042,8.0424-.0023,16.0849-.0157,24.1273.0028,6.3687.0146,12.5511,1.0019,18.2866,3.92a25.3609,25.3609,0,0,1,14.3914,20.2616,27.4073,27.4073,0,0,1-3.5291,18.5387,22.0077,22.0077,0,0,1-6.0565,6.5212L61.9,569.8217H60.8685c-8.5269,0-17.0539-.0109-25.5807.0195a1.4312,1.4312,0,0,1-1.4209-.8509q-4.8462-8.2673-9.7449-16.5037c-.1785-.3017-.37-.5958-.5548-.8935Zm.0824-35.4325v16.2628a14.3417,14.3417,0,0,0,7.2214-1.2411c2.8036-1.45,3.9374-3.8914,3.9251-6.9175a7.1131,7.1131,0,0,0-3.9121-6.8268A14.7693,14.7693,0,0,0,23.4479,516.204Z" fill="#fff"/>
            <path d="M353.0809,545.6178l13.7481,24.2039h-1.09c-8.4946,0-16.9892-.0091-25.4837.0167a1.432,1.432,0,0,1-1.4435-.8121c-3.2429-5.5419-6.5225-11.0622-9.7937-16.5876-.1721-.2907-.3647-.5692-.6922-1.0774v18.3906H304.9071V496.368h1.0106c8.01,0,16.02-.0144,24.03.0048,6.4345.0154,12.6776,1.0092,18.4611,3.9945,8.8862,4.5869,13.59,11.9658,14.4424,21.8792a27.4288,27.4288,0,0,1-2.7871,15.2144A22.5935,22.5935,0,0,1,353.0809,545.6178ZM328.3582,532.58a43.7253,43.7253,0,0,0,4.45-.4115c6.4241-1.2452,7.4165-6.3113,6.38-10.2846-1.0333-3.9618-6.5142-6.7374-10.83-5.5393Z" fill="#fff"/>
            <path d="M205.04,502.4315c-4.4742,6.3584-8.8744,12.6117-13.2748,18.8651-8.6635-6.1718-18.9551-3.7615-23.0212,3.0675-3.86,6.4832-3.25,16.3644,4.2042,21.5112a15.4942,15.4942,0,0,0,20.838-3.17H187.41v-15.44h28.15c.0158.3323.0462.6773.0464,1.0223.0027,7.494.0115,14.9881-.0176,22.4821a3.33,3.33,0,0,1-.4529,1.6236,38.2456,38.2456,0,0,1-25.5,18.472c-20.7688,4.5412-41.6654-9.072-45.5637-29.9551-2.687-14.3948,1.2124-26.9613,12.0938-36.9972a34.6059,34.6059,0,0,1,21.702-9.1492,40.62,40.62,0,0,1,23.492,5.06c.9206.5282,1.7752,1.1735,2.6489,1.7811C204.351,501.8421,204.6606,502.1249,205.04,502.4315Z" fill="#fff"/>
            <path d="M254.3112,569.7548V496.4172h43.1224v19.2376H277.7618v8.1285h19.34v18.26H277.7857v8.4847h20.4354v19.2272Z" fill="#fff"/>
            <path d="M221.7633,496.4157H246.49v73.3371H221.7633Z" fill="#fff"/>
          </g>
          <g>
            <path d="M404.05,532.0588c.248-1.9807.376-3.9853.7636-5.9382,2.3829-12.0071,8.94-21.0936,19.6887-26.8672a38.5191,38.5191,0,1,1-19.5987,41.6408c-.3533-1.7-.4594-3.4521-.6808-5.18q-.0852-.6645-.1728-1.3285ZM442.6515,517.77a15.4108,15.4108,0,1,0,15.432,15.4218A15.4642,15.4642,0,0,0,442.6515,517.77Z" fill="#fff"/>
            <path d="M604.3341,569.8156V496.439c.3376-.0159.6492-.0433.9607-.0434,8.075-.0022,16.15-.0193,24.2251.0043a39.6408,39.6408,0,0,1,18.191,3.918,25.3712,25.3712,0,0,1,14.396,20.2658,27.4278,27.4278,0,0,1-3.526,18.5458,22.065,22.065,0,0,1-6.0589,6.5289L666.27,569.8728h-1.0262c-8.5272,0-17.0545-.0106-25.5816.0193a1.4318,1.4318,0,0,1-1.424-.8462q-4.822-8.2284-9.6981-16.4251c-.1954-.33-.3956-.6578-.7548-1.2545v18.4493Zm23.4565-37.3178a15.6257,15.6257,0,0,0,6.811-1.01c5.73-2.4232,5.3091-10.4991,1.7586-13.1395-2.57-1.9115-5.4957-2.14-8.57-2.1148Z" fill="#fff"/>
            <path d="M513.8332,528.2758c1.3879-3.533,2.7043-6.8838,4.02-10.2346q4.0868-10.4039,8.17-20.8091c.1956-.4991.3629-.8609,1.06-.8582,8.1092.0314,16.2186.02,24.3279.022.1553,0,.3106.0221.5472.04-.1522.4376-.2749.8305-.4239,1.2131q-13.8592,35.5735-27.7075,71.1515a1.41,1.41,0,0,1-1.5714,1.1005c-5.6534-.0562-11.3076-.0432-16.9614-.01a1.1706,1.1706,0,0,1-1.3185-.89Q490.04,533.146,476.06,497.3074c-.1022-.2624-.177-.5356-.2866-.8709.3557-.0166.6356-.041.9155-.0411,7.9155-.002,15.8311.011,23.7464-.022a1.19,1.19,0,0,1,1.3.935q5.8042,14.9794,11.6481,29.9436C513.4964,527.5417,513.6331,527.822,513.8332,528.2758Z" fill="#fff"/>
            <path d="M697.6109,528.2748c1.258-3.2012,2.4451-6.2209,3.6314-9.2408q4.2813-10.8993,8.5588-21.8c.1952-.4979.36-.8629,1.0583-.86,8.1092.0314,16.2186.02,24.328.022.1557,0,.3114.0218.5485.04-.1515.4364-.2736.8294-.4226,1.2119q-13.8592,35.5736-27.7078,71.1513a1.41,1.41,0,0,1-1.57,1.1028c-5.6533-.0569-11.3077-.0433-16.9614-.01a1.1705,1.1705,0,0,1-1.32-.8877q-13.9354-35.8556-27.9151-71.694c-.1023-.2626-.1777-.5357-.288-.8721.355-.0169.6345-.0418.914-.0419,7.9155-.002,15.831.011,23.7464-.022a1.1905,1.1905,0,0,1,1.3012.9329q5.8041,14.98,11.6481,29.9439C697.2735,527.5389,697.41,527.8184,697.6109,528.2748Z" fill="#fff"/>
            <path d="M597.68,550.5809v19.2132H553.7717v-73.34h43.1247v19.2082H577.21v8.13h19.3187v18.3H577.2022v8.4883Z" fill="#fff"/>
            <path d="M862.5018,550.573v19.2333H818.57V496.4426h43.114V515.688H842.011v8.1312h19.3411v18.266H842.0348v8.4878Z" fill="#fff"/>
            <path d="M878.8111,515.6957H865.296V496.4652h51.1962v19.19H903.029v54.16H878.8111Z" fill="#fff"/>
            <path d="M782.0985,569.8423h-44.545V496.46h24.327v54.118h20.218Z" fill="#fff"/>
            <path d="M786.0092,496.4428H810.74v73.3624H786.0092Z" fill="#fff"/>
          </g>
        </g>
        <g id="Naam">
          <g>
            <path d="M27.1316,670.43q.552-2.3818,1.104-4.7637c.0673-.29.1327-.5811.2208-.9671.45.1925.8616.3722,1.2761.546a32.7749,32.7749,0,0,0,13.9035,2.9314,10.8278,10.8278,0,0,0,7.6623-3.0217c2.81-2.8287,3.8118-9.363-1.1438-12.691a38.858,38.858,0,0,0-7.2007-3.502,46.8363,46.8363,0,0,1-9.4325-4.5916,12.5076,12.5076,0,0,1-5.5619-7.6444A13.6519,13.6519,0,0,1,34.97,621.646a21.6564,21.6564,0,0,1,10.851-2.5909A36.6261,36.6261,0,0,1,58.9472,621.5c.1485.0571.2949.12.5247.2139l-1.4147,5.7565c-1.3657-.4551-2.6518-.95-3.9743-1.3113a27.7588,27.7588,0,0,0-10.6143-1.0314c-3.221.3786-6.0442,1.58-7.756,4.5428a7.096,7.096,0,0,0,1.9413,9.4937,31.2515,31.2515,0,0,0,6.69,3.28A56.774,56.774,0,0,1,53.76,646.763c3.13,1.9635,5.5946,4.4915,6.4725,8.2048,1.6458,6.9615-1.0631,14.7344-9.5756,17.8268a24.9366,24.9366,0,0,1-10.6421,1.24,36.4665,36.4665,0,0,1-12.8828-3.4663Z" fill="#fff"/>
            <path d="M95.3666,674.1539c-7.427.0428-14.0741-2.2443-19.39-7.8025a26.52,26.52,0,0,1-6.9474-14.2137,30.0115,30.0115,0,0,1,1.32-15.8926c3.5666-9.4545,10.3621-15.12,20.3369-16.8039a27.0128,27.0128,0,0,1,16.7985,2.323,24.1081,24.1081,0,0,1,12.9886,15.9082,30.35,30.35,0,0,1-2.6818,23.5867c-3.9567,7.0752-10.1109,11.1415-18.08,12.4942-.6365.1081-1.2782.1962-1.9211.2542C97.0323,674.0759,96.27,674.1015,95.3666,674.1539Zm-19.669-28.5581a28.2713,28.2713,0,0,0,.9257,7.749c2.4784,8.9486,9.5366,14.5294,18.4694,14.6086,8.05.0714,14.5148-4.1267,17.5268-11.5976a25.8415,25.8415,0,0,0,.4053-18.6739,17.78,17.78,0,0,0-9.3367-10.5466,20.1664,20.1664,0,0,0-11.3342-1.7436A17.4973,17.4973,0,0,0,80.1906,632.06,21.8611,21.8611,0,0,0,75.6976,645.5958Z" fill="#fff"/>
            <path d="M245.908,673.02c-2.0236.1558-3.9945.3208-5.9674.4547-1.3034.0885-1.3022.0675-1.7612-1.1318-1.4252-3.7244-2.861-7.4448-4.2681-11.176a.7452.7452,0,0,0-.831-.5891q-12.02.0255-24.0393-.0024a.7933.7933,0,0,0-.87.6366c-1.4854,3.9235-2.9985,7.8364-4.479,11.7617a.7135.7135,0,0,1-.8934.5615c-2.0889-.2028-4.1842-.341-6.3741-.5106.0984-.2807.1708-.5124.26-.7376q10.2255-25.8879,20.4411-51.78a.8848.8848,0,0,1,.9983-.6712c2.1239.0368,4.2489.0254,6.3732.0061a.7114.7114,0,0,1,.8132.5169q10.1918,26.049,20.4108,52.0874C245.7864,672.6139,245.833,672.7887,245.908,673.02Zm-24.7387-45.7893c-3.6167,9.2862-7.1582,18.3792-10.7188,27.5215h21.28Z" fill="#fff"/>
            <path d="M248.7942,673.0221c.12-.3209.21-.5735.3089-.8229q10.2115-25.8563,20.4153-51.7155a.8478.8478,0,0,1,.9442-.6476c2.147.0363,4.2951.0278,6.4424.0045a.71.71,0,0,1,.7939.5439q10.18,26.0164,20.3854,52.0232c.0735.1873.1278.3821.2037.6116-2.3356.1813-4.6112.3707-6.89.51-.18.011-.4728-.29-.5573-.5069-1.3481-3.4575-2.6694-6.9255-4-10.39-.2555-.665-.3513-1.5754-.8393-1.9153s-1.3762-.1246-2.089-.125c-7.4358-.004-14.8716.0087-22.3072-.0217a.9978.9978,0,0,0-1.1166.7927c-1.457,3.8848-2.9575,7.7532-4.4236,11.6346-.1641.4346-.3385.59-.8411.5416C253.1156,673.3356,251.0015,673.194,248.7942,673.0221Zm14.0347-18.2608h21.2869c-3.5169-9.1644-7.007-18.2593-10.5644-27.53C269.94,636.5038,266.3986,645.5961,262.8289,654.7613Z" fill="#fff"/>
            <path d="M170.9627,621.7153l-1.5025,5.9108c-1.4163-.46-2.749-.98-4.1257-1.3244a27.7908,27.7908,0,0,0-13.8349-.4109,17.9864,17.9864,0,0,0-13.0736,11.78c-2.7194,7.4758-2.3263,14.8245,2.066,21.6286,3.2942,5.1031,8.2055,7.7838,14.1876,8.4886a25.9032,25.9032,0,0,0,14.9-2.7067c.2026-.1014.4144-.1846.6623-.2941.3824,1.909.7433,3.764,1.1323,5.613.0908.4315-.1389.5584-.4544.7082a34.0531,34.0531,0,0,1-21.236,2.2281c-10.4153-2.676-16.8665-9.34-19.2759-19.7666a29.2657,29.2657,0,0,1,2-19.4072,24.9325,24.9325,0,0,1,18.2521-14.4114,34.1893,34.1893,0,0,1,19.7829,1.74C170.5928,621.5482,170.7377,621.6176,170.9627,621.7153Z" fill="#fff"/>
            <path d="M306.8033,673.3V619.891h7.0024v47.334h24.2328c-.2152,2.0656-.4221,4.0518-.6329,6.0748Z" fill="#fff"/>
            <path d="M180.8586,619.87h6.956v53.4286h-6.956Z" fill="#fff"/>
          </g>
          <g>
            <path d="M365.1127,645.0717c.2349-1.6148.4058-3.242.7152-4.8424a25.4017,25.4017,0,0,1,22.37-20.79c7.9876-.9168,15.2645.818,21.358,6.3118a25.004,25.004,0,0,1,7.9236,14.8777,30.3136,30.3136,0,0,1-3.2778,20.4437c-4.2006,7.4609-10.6878,11.6193-19.1533,12.6689a26.4057,26.4057,0,0,1-16.94-3.13c-6.7573-3.9188-10.6368-9.9262-12.2652-17.4635-.3448-1.5955-.4927-3.2336-.7313-4.8521Zm45.7518.7083c-.0541-.6739-.0926-1.9607-.271-3.2277a19.9417,19.9417,0,0,0-6.0306-12.2743,18.6115,18.6115,0,0,0-14.2285-4.899c-6.6828.3436-11.8876,3.2958-15.2087,9.1855-2.857,5.0668-3.3928,10.5624-2.4821,16.22,1.4663,9.1082,7.7583,16.0558,16.9311,16.93,7.3385.7,13.4059-1.72,17.6155-7.9807C409.89,655.7178,410.818,651.163,410.8645,645.78Z" fill="#fff"/>
            <path d="M742.86,631.51q-2.5365,20.9325-5.05,41.6772h-7.0612c2.274-17.8235,4.5257-35.4718,6.8075-53.3569,2.2038,0,4.3771-.0235,6.5483.0318.2514.0064.6043.4058.72.6982,2.12,5.3455,4.21,10.703,6.3095,16.0568q4.7318,12.0669,9.4678,24.1319c.0757.1928.1594.3823.2981.7141.1738-.3933.3083-.6706.4209-.9565q7.8277-19.8783,15.6332-39.7653a1.2256,1.2256,0,0,1,1.4209-.9249c1.9635.0677,3.9309.0225,5.9656.0225,2.2256,17.8572,4.4258,35.5094,6.6485,53.3432h-7.059c-1.604-13.8068-3.2254-27.7638-4.8484-41.7345-.106.2429-.249.544-.3706.8536q-7.4176,18.8867-14.8152,37.7812c-.2565.6569-.54.9408-1.2736.9014-1.25-.067-2.5083-.0595-3.7593-.0018-.6629.0306-.92-.2375-1.1428-.82q-7.2169-18.8683-14.4718-37.7223C743.1272,632.1229,742.9874,631.813,742.86,631.51Z" fill="#fff"/>
            <path d="M428.95,673.13V620.1655c1.7364-.1145,3.4853-.1671,5.2172-.3678a2.0048,2.0048,0,0,1,2.0952,1.0536q14.156,20.0829,28.3663,40.1274c.1858.2625.385.5155.7347.9821V620.0377H472.16v1.0045q0,25.5238.0157,51.0478c.001.7872-.1714,1.1038-1.02,1.0955-1.52-.0149-3.0457.05-4.562.1694a1.4315,1.4315,0,0,1-1.4463-.7438q-14.3487-20.385-28.73-40.7469c-.1837-.26-.378-.5132-.6925-.9388V673.13Z" fill="#fff"/>
            <path d="M639.1854,673.17H632.456v-53.024c2.066-.12,4.1391-.2631,6.2147-.3283.2489-.0078.5687.37.7587.6371q8.004,11.2777,15.985,22.5719,6.3589,8.9877,12.7173,17.9758c.1813.256.3763.5023.7081.9437V620.0572h6.7646c.0131.2947.0393.61.0393.9251q.003,25.5687.0211,51.1374c.0012.8388-.2578,1.0641-1.0533,1.0634-1.5212-.0013-3.0449.0625-4.5626.17a1.3712,1.3712,0,0,1-1.3814-.6931q-12.0488-17.1327-24.1342-34.24-2.3475-3.328-4.6966-6.655c-.163-.2305-.3479-.4455-.6513-.8315Z" fill="#fff"/>
            <path d="M846.1532,620.1443c2.042-.12,4.0355-.2667,6.0315-.3214a1.4353,1.4353,0,0,1,.9338.6334q7.6,10.6864,15.1609,21.4,6.7726,9.5722,13.5467,19.1434c.1823.2575.3784.5051.7074.9428V620.0581h6.7657c.0135.292.0406.6066.0407.9212q.003,25.5687.0207,51.1373c.0012.8335-.2491,1.0682-1.05,1.0668-1.5211-.0028-3.0448.0626-4.5626.1691a1.3723,1.3723,0,0,1-1.383-.69q-11.7658-16.73-23.5689-33.4337-2.6314-3.73-5.2615-7.4614c-.1632-.231-.3481-.4468-.6506-.8325v42.2046h-6.7309Z" fill="#fff"/>
            <path d="M486.2889,620.161c6.7685-.055,13.4583-.374,20.1222-.0885a24.823,24.823,0,0,1,17.2028,7.3368,22.9167,22.9167,0,0,1,6.1782,12.4673,31.4219,31.4219,0,0,1-1.5379,17.5026c-3.275,8.091-9.36,13.0066-17.7517,15.0466a33.1265,33.1265,0,0,1-7.3392.9277c-5.3983.0694-10.8-.1193-16.2-.2061-.2045-.0033-.4084-.0422-.6741-.0713Zm6.9513,5.9326v1.0358q0,19.56,0,39.12c0,.1791-.0645.3988.0159.5282.14.225.3719.5646.5611.562,4.2033-.0594,8.4466.1759,12.6-.3268a17.7781,17.7781,0,0,0,14.83-10.811,25.7872,25.7872,0,0,0,1.6958-14.2848c-1.0919-8.4034-6.7439-14.299-15.0824-15.6611-4.3651-.713-8.7489-.3672-13.1288-.2643C494.2624,626.0029,493.7942,626.0547,493.24,626.0936Z" fill="#fff"/>
            <path d="M584.8105,620.313c1.8269-.0777,3.613-.2,5.4-.2208,4.713-.055,9.4291-.1709,14.1389-.0559a18.2434,18.2434,0,0,1,8.2867,2.3233,13.3945,13.3945,0,0,1,6.966,9.2844,19.5589,19.5589,0,0,1-.71,11.2747,14.323,14.323,0,0,1-9.1025,8.6347c-.3042.1087-.6042.2287-.9966.3778l15.0387,21.0142c-2.4838.194-4.7922.3954-7.1047.5239-.2441.0135-.5733-.3593-.76-.6252q-6.56-9.3387-13.08-18.7057a1.6784,1.6784,0,0,0-1.5955-.8353c-3.1315.0448-6.2639.0189-9.5145.0189V673.15h-6.9666Zm6.99,26.9408c2.5695,0,5.0432.0479,7.514-.0157a38.2833,38.2833,0,0,0,5.6037-.4c3.5438-.6208,6.2352-2.4667,7.4729-6.0113a14.359,14.359,0,0,0,.517-6.6261,9.1413,9.1413,0,0,0-1.7455-4.532,9.29,9.29,0,0,0-7.2409-3.5445c-3.9534-.1916-7.9229-.05-11.8856-.0445-.0745,0-.1489.0771-.2356.1251Z" fill="#fff"/>
            <path d="M541.46,620.0388h31.2375v6.0063H548.47v17.2732h20.96v5.74c-.3229.0156-.6653.0463-1.0075.0464-6.3276.0029-12.6552.0164-18.9826-.0153-.8152-.0041-1.0547.2093-1.0488,1.0421.0381,5.3423.0188,10.6851.0211,16.0277,0,.2909.0245.5819.0416.9622h25.73c-.213,2.0479-.4153,3.9939-.6245,6.0047h-32.1Z" fill="#fff"/>
            <path d="M689.7763,620.0378h31.2353v6.0049H696.7869v17.2734h20.9576v5.74c-.32.0162-.6615.0484-1.0032.0486-6.3275.0031-12.6551.0162-18.9825-.0149-.81-.004-1.0583.2006-1.0523,1.0387.0388,5.3423.0191,10.685.0214,16.0276,0,.2917.0245.5833.0416.9632H722.5c-.2129,2.0483-.4151,3.994-.6241,6.0059h-32.1Z" fill="#fff"/>
            <path d="M809.8094,667.1265h25.7151c-.2116,2.0412-.4152,4.006-.6236,6.0164H802.787V620.0652h31.2382v5.956H809.8311v17.33h20.9626v5.7535H809.8094Z" fill="#fff"/>
          </g>
        </g>
        <path id="Logo" d="M705.6031,267.5966a1.5779,1.5779,0,0,0,.1823-.2918,159.8139,159.8139,0,0,0,20.98-54.2929c3.2292-16.7476,9.0853-64.9289-18.7544-116.1386-15.0509-27.4018-33.933-47.415-55.7887-61.7a165.5674,165.5674,0,0,0-22.02-12.0955c-.0183,0-.0366-.0183-.0548-.0183-21.3268-10.3077-45.1893-16.3827-68.1762-20.56A306.2514,306.2514,0,0,0,528.6405.0365h-.4927c-.5108-.0182-1.0216-.0182-1.5325-.0182-.4743,0-.9486-.0183-1.4412-.0183-.748,0-1.496.0183-2.2439.0183a222.1778,222.1778,0,0,0-36.6331,3.1561q-6.6771.9851-13.6644,2.28Q462.5074,7.343,451.7438,9.8516a.0639.0639,0,0,0-.0365-.0183A192.9972,192.9972,0,0,0,398.1259.4926h-.0729c-13.4091-1.0581-25.5593-.4378-44.2224,2.39-25.5046,3.9042-49.55,11.6941-71.9344,24.3369-9.6509,5.4366-18.7362,11.9131-27.785,18.3348C235.9407,58.4889,222.258,75.6379,210.71,94.3922a160.2257,160.2257,0,0,0-20.9984,54.2929c-3.32,17.3314-9.4867,68.3951,21.8558,121.5934,3.0467,5.1994,3.9041,9.1764,2.098,15.1421-5.2724,17.4044-9.1218,35.2284-14.2117,52.6875-1.277,4.4331.73,3.32,3.12,2.7,17.5868-4.5061,34.9547-9.888,52.505-14.5037a16.3852,16.3852,0,0,1,13.5733,2.3535c25.1943,16.62,56.2631,25.1761,85.8724,30.54a305.9381,305.9381,0,0,0,33.3127,2.4629h.4926c.5109.0182,1.0217.0182,1.5325.0182.4925,0,.9669.0183,1.4595.0183.73,0,1.4777-.0183,2.2439-.0183a222.37,222.37,0,0,0,36.6331-3.1561q6.6773-.9851,13.6644-2.28c6.7319-1.2588,13.7192-2.7183,20.8889-4.3968a.0639.0639,0,0,0,.0366.0183,192.9943,192.9943,0,0,0,53.5631,9.3407h.0729c13.4272,1.0581,25.5775.4378,44.2224-2.39,25.5227-3.9042,49.5678-11.6941,71.9526-24.3369q2.7639-1.56,5.4731-3.2291a16.2167,16.2167,0,0,1,11.0921-.146c17.1854,5.9109,34.0972,12.5516,51.3192,18.3347,2.3351.7664,4.2507,2.0434,3.302-2.4811-3.7946-17.7874-6.3305-35.8485-10.3076-53.5813-1.3683-6.0933-.2189-9.9974,3.1926-14.9415Q702.42,273.015,705.6031,267.5966Zm-14.8869-68.7235c-7.4434,36.9067-22.9868,63.4511-53.3441,87.9887-22.5673,18.2436-48.4367,28.4965-76.2034,34.2615a143.9114,143.9114,0,0,1-41.267,2.9372c-30.6492-2.6453-59.7659-10.9827-85.7813-27.2011-16.7657-10.4719-32.291-23.2606-43.5291-40.1907-9.0306-13.5914-16.7658-27.8579-20.451-43.821-2.4081-10.3624-5.3818-21.0713-4.8893-31.4883,1.1129-23.9721,5.9291-47.1232,19.3565-68.0669,8.0088-12.4968,16.7841-24.0085,27.42-34.2248,1.0034-.967,2.098-1.8609,3.1744-2.7548a.5837.5837,0,0,0-.2554-1.0217c-6.1116-1.1311-34.2067-4.2873-47.9624-2.6453-.8574.0912-1.5872,1.77-2.2622,2.7731-15.6894,23.5889-28.7518,47.05-34.4621,74.89-2.0433,10.0339-1.204,19.7942-2.554,31.1964.2372,36.1771,12.0042,69.8182,34.7722,99.8471a136.3838,136.3838,0,0,0,17.86,18.6449q6.513,6.0479,12.9894,11.4205c.0183.0183.0366.0183.0548.0365,7.042,5.82,16.2733,12.6975,16.8388,13.3361-.0547-.0183-.1641-.0913-.3284-.1825-1.7878.2554-3.5575.4743-5.3271.675h-.0182a147.7925,147.7925,0,0,1-16.0909.93h-.5655c-4.6521-.1094-9.286-.4195-13.9016-.8939a.2309.2309,0,0,1-.11-.0183.7491.7491,0,0,1-.2006-.0182,243.58,243.58,0,0,1-32.802-6.02c-31.3971-7.7535-57.65-23.7349-79.9615-46.6123a131.3936,131.3936,0,0,1-33.7142-61.28c-3.74-15.4522-4.8163-31.7437-1.4229-48.5461,7.4251-36.9067,22.9868-63.451,53.3442-87.9887C301.69,56.5916,327.56,46.3387,355.3083,40.5737a144.0806,144.0806,0,0,1,41.2852-2.9372c30.6309,2.6453,59.7658,10.9827,85.7812,27.2011,16.7658,10.4719,32.2911,23.2605,43.5292,40.1906,9.0122,13.5915,16.7658,27.858,20.451,43.8211,2.39,10.3623,5.3636,21.0713,4.8892,31.4883-1.1128,23.9721-5.9291,47.1232-19.3563,68.0669-8.009,12.4968-16.7842,24.0085-27.42,34.2248-1.0035.967-2.098,1.8609-3.1744,2.7548a.5836.5836,0,0,0,.2554,1.0216c6.1117,1.1311,34.2067,4.2873,47.9623,2.6454.8392-.0912,1.5873-1.77,2.2623-2.7731,15.6711-23.5889,28.7518-47.05,34.4438-74.89,2.0615-10.034,1.2223-19.7942,2.5723-31.1965-.2371-36.177-12.0043-69.8181-34.7722-99.8471A135.4387,135.4387,0,0,0,536.1385,61.7q-6.4856-6.0479-12.9894-11.4205l-.0365-.0366c-8.0636-6.6588-19.01-14.7224-16.51-13.1535,1.7878-.2554,3.5575-.4743,5.3271-.675a148.3574,148.3574,0,0,1,16.1091-.93h.5655c4.6339.1094,9.2678.4195,13.9016.8939a.232.232,0,0,1,.11.0182.7455.7455,0,0,1,.2006.0183,244.091,244.091,0,0,1,32.802,6.02c31.3971,7.7535,57.65,23.7349,79.9615,46.6122a131.3949,131.3949,0,0,1,33.7142,61.28C693.0332,165.7793,694.11,182.0708,690.7162,198.8731Z" fill="#fff"/>
        <rect x="113.7082" y="416.5673" width="689.0787" height="13.8601" rx="5.2269" fill="#424288"/>
      </g>
    </g>
  </g>
</svg>
