<?xml version="1.0" encoding="utf-8"?>
<svg version="1.1" id="Laag_1" xmlns="http://www.w3.org/2000/svg" xmlns:xlink="http://www.w3.org/1999/xlink" x="0px" y="0px"
	 viewBox="0 0 552.9 69.4" style="enable-background:new 0 0 552.9 69.4;" xml:space="preserve">
<style type="text/css">
	.st0{fill:#FFFFFF;}
	.st1{opacity:0.28;fill:#FFFFFF;}
	.st2{opacity:0.14;fill:#FFFFFF;}
	.st3{opacity:0.61;fill:#FFFFFF;}
</style>
<g>
	<path class="st0" d="M2,39.4h9c8.1,0,13.3,5.6,13.3,13.8v0.4c0,8.2-5.2,13.8-13.3,13.8H2V39.4z M7.8,44.6v17.5H11
		c4.4,0,7.4-3.1,7.4-8.6v-0.2c0-5.5-3-8.6-7.4-8.6L7.8,44.6L7.8,44.6z"/>
	<path class="st0" d="M27.4,39.4h18v5.2H33.2v6H44v5.2H33.2V62h12.4v5.2H27.4V39.4z"/>
	<path class="st0" d="M46.5,39.4h6.3l5.9,19.2l5.9-19.2h6.1l-9.4,28.1H56L46.5,39.4z"/>
	<path class="st0" d="M72.7,39.4h18v5.2H78.4v6h10.8v5.2H78.4V62h12.4v5.2H72.7V39.4z"/>
	<path class="st0" d="M93.9,39.4h5.8V62H111v5.3H93.9V39.4z"/>
	<path class="st0" d="M110.9,53.6v-0.5c0-8.4,5.3-14.2,12.6-14.2c7.4,0,12.6,5.8,12.6,14.2v0.5c0,8.3-5.3,14.2-12.6,14.2
		C116.1,67.7,110.9,61.9,110.9,53.6z M130.1,53.5v-0.3c0-5.5-2.8-9-6.7-9c-3.9,0-6.7,3.4-6.7,8.9v0.3c0,5.5,2.8,9,6.7,9
		C127.4,62.4,130.1,59,130.1,53.5z"/>
	<path class="st0" d="M139.2,39.4h9.3c6.3,0,10.2,3.6,10.2,9.6v0.1c0,6.4-4.6,9.6-10.4,9.8H145v8.5h-5.8V39.4z M148.2,53.6
		c3,0,4.7-1.9,4.7-4.5l0,0c0-2.9-1.7-4.5-4.7-4.5H145v9H148.2z"/>
	<path class="st0" d="M161,39.4h6.1l6.2,11.3l6.1-11.3h6.1v27.9h-5.7V49.4l-6.6,11.5h-0.1l-6.5-11.4v17.7H161V39.4z"/>
	<path class="st0" d="M189.6,39.4h18v5.2h-12.2v6h10.8v5.2h-10.8V62h12.4v5.2h-18.1L189.6,39.4L189.6,39.4z"/>
	<path class="st0" d="M210.8,39.4h5.3l10.7,16.3V39.4h5.7v27.9h-4.9l-11-16.9v16.9h-5.7V39.4H210.8z"/>
	<path class="st0" d="M241.9,44.7h-7v-5.3h19.8v5.3h-7v22.6H242V44.7H241.9z"/>
</g>
<g>
	<path class="st0" d="M0,27.9l3.8-4.7c2.1,1.8,4.5,3.5,7.6,3.5c2.4,0,3.9-1.2,3.9-3l0,0c0-1.5-0.9-2.5-5.2-4.2
		c-5.4-2.1-8.8-4.2-8.8-9.4V10c0-5.3,4.1-9,10-9c3.6,0,7.1,1.2,9.9,3.8l-3.5,4.8c-1.9-1.6-4.2-2.8-6.5-2.8C9,6.8,7.7,7.9,7.7,9.5
		l0,0c0,1.7,1,2.6,5.8,4.5c5.3,2.1,8.2,4.4,8.2,9.1v0.1c0,5.7-4.3,9.2-10.3,9.2C7.4,32.4,3.4,31,0,27.9z"/>
	<path class="st0" d="M24.3,20.1V1.4h6.3v18.8c0,4.3,2.1,6.5,5.3,6.5c3.3,0,5.3-2.1,5.3-6.3v-19h6.3V20c0,8.4-4.6,12.5-11.7,12.5
		C28.8,32.5,24.3,28.4,24.3,20.1z"/>
	<path class="st0" d="M49.4,27.9l3.8-4.7c2.1,1.8,4.5,3.5,7.6,3.5c2.4,0,3.9-1.2,3.9-3l0,0c0-1.5-0.9-2.5-5.2-4.2
		c-5.4-2.1-8.8-4.2-8.8-9.4V10c0-5.3,4.1-9,10-9c3.6,0,7.1,1.2,9.9,3.8l-3.5,4.8c-1.9-1.6-4.2-2.8-6.5-2.8c-2.2,0-3.5,1.1-3.5,2.7
		l0,0c0,1.7,1,2.6,5.8,4.5c5.3,2.1,8.2,4.4,8.2,9.1v0.1c0,5.7-4.3,9.2-10.3,9.2C56.9,32.4,52.8,31,49.4,27.9z"/>
	<path class="st0" d="M79.3,7.3h-7.7V1.4h21.7v5.9h-7.7V32h-6.3V7.3z"/>
	<path class="st0" d="M101.5,1.2h6l11,30.8h-6.6l-2.3-6.6H99.1L96.9,32h-6.4L101.5,1.2z M107.7,19.8l-3.3-10l-3.4,10H107.7z"/>
	<path class="st0" d="M120.9,1.4h6.3V32h-6.3V1.4z"/>
	<path class="st0" d="M131.9,1.4h5.8l11.7,17.8V1.4h6.2V32h-5.4l-12.1-18.5V32h-6.2V1.4z"/>
	<path class="st0" d="M168.8,1.2h6l11,30.8h-6.6l-2.3-6.6h-10.5l-2.2,6.6h-6.4L168.8,1.2z M175.1,19.8l-3.3-10l-3.4,10H175.1z"/>
	<path class="st0" d="M188,1.4h11.4c3.4,0,6.3,0.9,8,2.7c1.4,1.4,2.1,3.1,2.1,5.2v0.1c0,3.6-2,5.5-4.2,6.7c3.3,1.3,5.5,3.3,5.5,7.3
		v0.2c0,5.5-4.4,8.4-11.1,8.4H188V1.4z M203.2,10.4c0-2.2-1.6-3.4-4.3-3.4h-4.7v6.9h4.4C201.4,13.9,203.2,12.8,203.2,10.4
		L203.2,10.4z M199.7,19.2h-5.6v7.2h5.7c2.8,0,4.6-1.2,4.6-3.6l0,0C204.5,20.6,202.9,19.2,199.7,19.2z"/>
	<path class="st0" d="M213.7,1.4h6.3v24.8h12.4V32h-18.7V1.4z"/>
	<path class="st0" d="M235,1.4h19.7v5.7h-13.4v6.6h11.8v5.7h-11.8v6.8h13.6v5.7H235V1.4z"/>
</g>
<path class="st0" d="M298.7,32.1h30.9c-0.5,24.8-14.2,37.3-32.6,37.3c-19.9,0-32.6-16.7-32.6-34.7S277.1,0,297,0
	c22,0,28.1,13.7,30.6,20.8l-14,0.9c-2.4-5.9-7.2-9.8-16.6-9.8c-10.5,0-18.7,8.6-18.7,22.8c0,12,7.6,22.8,19.6,22.8
	c10.8,0,15.8-7.7,16.9-14h-16L298.7,32.1L298.7,32.1z"/>
<path class="st0" d="M461.7,1.3H475v54.4h25.7v12.4h-39V1.3z"/>
<path class="st0" d="M538.2,18.9c0-4.6-4.4-7.5-9.8-7.5c-6.7,0-10.7,2.9-10.7,7.4c0,4.6,4.4,6.8,7.7,7.9l12.3,3.9
	c8.9,2.8,15.2,8,15.2,18.3c0,8.2-5.9,20.4-24.3,20.4c-23.2,0-25.3-15-25.3-21l13.3-0.3c0,7.1,5.6,9.9,12.1,9.9
	c4.5,0,10.9-2.2,10.9-7.4c0-3.6-1.5-5.4-8.1-7.8l-14.6-5.2c-7.4-2.7-12.5-9.2-12.5-16.7c0-8.5,5.9-20.8,23.2-20.8
	c20.6,0,23.9,13.7,23.9,18.6L538.2,18.9z"/>
<path class="st1" d="M351,26.4c0.8-1.4,1.8-2.7,3-3.8L344.3,12c-2.4,2.3-4.5,5-6.2,8L351,26.4z"/>
<path class="st1" d="M374.7,18.9c1.5,0.7,2.8,1.5,4.1,2.5l9.7-10.6c-2.6-2.2-5.5-4-8.6-5.4L374.7,18.9z"/>
<path class="st2" d="M397,22.1l-12.9,6.4c0.6,1.4,1.1,3,1.3,4.6l14.3-1.4C399.3,28.3,398.4,25.1,397,22.1"/>
<path class="st3" d="M383.2,26.7l12.9-6.4c-1.6-3-3.6-5.7-6-8l-9.8,10.6C381.4,24,382.4,25.3,383.2,26.7"/>
<path class="st2" d="M348.4,35.8c0-0.3,0-0.6,0-0.9l-14.3-1.3c0,0.7-0.1,1.4-0.1,2.2c0,2.7,0.3,5.4,1,8l13.8-4
	C348.6,38.5,348.4,37.2,348.4,35.8"/>
<path class="st3" d="M381.4,47.6c-1,1.2-2.2,2.3-3.5,3.3l7.6,12.3c2.8-1.9,5.3-4.2,7.4-6.9L381.4,47.6z"/>
<path class="st1" d="M385.6,35.8c0,1.4-0.1,2.7-0.4,4l13.8,4c0.6-2.5,1-5.2,1-7.9c0-0.7,0-1.4-0.1-2l-14.3,1.4
	C385.6,35.4,385.6,35.6,385.6,35.8"/>
<path class="st3" d="M352.9,47.9l-11.5,8.7c2.1,2.6,4.7,4.9,7.5,6.8l7.6-12.2C355.1,50.2,353.9,49.1,352.9,47.9"/>
<path class="st3" d="M348.6,32.9c0.3-1.6,0.7-3.2,1.4-4.6l-12.9-6.4c-1.4,3-2.4,6.3-2.8,9.7L348.6,32.9z"/>
<path class="st0" d="M383.7,64.3l-7.6-12.2c-1.4,0.8-2.9,1.4-4.4,1.8l2.7,14.2C377.7,67.2,380.8,65.9,383.7,64.3"/>
<path class="st0" d="M384.6,41.8c-0.5,1.5-1.2,2.9-2,4.1l11.5,8.7c1.9-2.7,3.3-5.7,4.3-8.8L384.6,41.8z"/>
<path class="st1" d="M369.7,54.2c-0.9,0.1-1.8,0.2-2.7,0.2c-0.7,0-1.5,0-2.2-0.1l-2.7,14.2c1.6,0.2,3.2,0.4,4.8,0.4
	c1.8,0,3.6-0.2,5.3-0.4L369.7,54.2z"/>
<path class="st0" d="M368.2,17.3c1.6,0.1,3.1,0.4,4.6,0.9L378,4.7c-3.1-1.1-6.4-1.7-9.8-1.8V17.3z"/>
<path class="st0" d="M362.8,53.9c-1.6-0.4-3.1-1-4.6-1.7l-7.6,12.2c2.9,1.7,6.1,2.9,9.5,3.6L362.8,53.9z"/>
<path class="st3" d="M361.4,18.1c1.5-0.5,3.1-0.8,4.7-0.8V2.9c-3.5,0.1-6.8,0.7-9.9,1.8L361.4,18.1z"/>
<path class="st0" d="M351.6,46.2c-0.9-1.3-1.7-2.8-2.2-4.4l-13.8,4c1,3.3,2.6,6.4,4.6,9.1L351.6,46.2z"/>
<path class="st0" d="M355.5,21.3c1.2-1,2.6-1.8,4-2.4l-5.2-13.4c-3.1,1.3-6,3.1-8.5,5.2L355.5,21.3z"/>
<g>
	<path class="st0" d="M439.9,54h-24.8l-4.4,14.1h-14.6l24.7-67.7H435l24.3,67.7h-14.9L439.9,54z M427.6,16.7h-0.2L418.8,43h17.4
		L427.6,16.7z"/>
</g>
</svg>
